<svg id="Laag_1" data-name="Laag 1" xmlns="http://www.w3.org/2000/svg" viewBox="0 0 155.24 22.57"><defs><style>.cls-1{fill:#fff;}</style></defs><path class="cls-1" d="M6.21,19.91V12.63H2.76V11.35h8.43v1.28H7.74v7.28Z" transform="translate(-2.76 -5.43)"/><path class="cls-1" d="M12.08,17.15a1.78,1.78,0,0,0,.6,1.38,2.24,2.24,0,0,0,1.53.51,2.57,2.57,0,0,0,1.22-.25,1.31,1.31,0,0,0,.65-.72h1.43a2.44,2.44,0,0,1-1.08,1.53,4.21,4.21,0,0,1-2.23.51,3.67,3.67,0,0,1-2.59-.87,3.12,3.12,0,0,1-.94-2.39,3.45,3.45,0,0,1,.43-1.74,3,3,0,0,1,1.22-1.2,3.85,3.85,0,0,1,1.87-.43,3.55,3.55,0,0,1,2.51.83,3,3,0,0,1,.9,2.34v.5Zm4.14-1A1.63,1.63,0,0,0,15.66,15a2.29,2.29,0,0,0-1.48-.44,2.17,2.17,0,0,0-1.41.46,1.75,1.75,0,0,0-.66,1.21Z" transform="translate(-2.76 -5.43)"/><path class="cls-1" d="M24.62,18.58A3.07,3.07,0,0,1,22,19.76a3.36,3.36,0,0,1-1.61-.38,2.55,2.55,0,0,1-1.1-1.08,3.44,3.44,0,0,1,0-3.26,2.91,2.91,0,0,1,1.14-1.14,3.45,3.45,0,0,1,1.72-.42,3.64,3.64,0,0,1,1.47.27,2.7,2.7,0,0,1,1.06.82v-.9h1.42v5.19a3.65,3.65,0,0,1-.84,2.67,3.59,3.59,0,0,1-2.64.84,5,5,0,0,1-2.44-.48,2,2,0,0,1-1-1.5H20.6a1.12,1.12,0,0,0,.63.67,3.36,3.36,0,0,0,1.33.21,2.16,2.16,0,0,0,1.55-.48,1.91,1.91,0,0,0,.51-1.48Zm0-2.1A1.89,1.89,0,0,0,24,15.12a2.1,2.1,0,0,0-1.54-.51,2.27,2.27,0,0,0-1.6.53,1.92,1.92,0,0,0-.57,1.48,1.93,1.93,0,0,0,.55,1.48,2.14,2.14,0,0,0,1.55.53,2.45,2.45,0,0,0,.91-.16,1.88,1.88,0,0,0,.71-.43,1.68,1.68,0,0,0,.57-1.26Z" transform="translate(-2.76 -5.43)"/><path class="cls-1" d="M28,19.91V13.67h1.42v1.07a3.12,3.12,0,0,1,1-.86,2.79,2.79,0,0,1,1.27-.3,4.36,4.36,0,0,1,.67.06l-.17,1.2a3.93,3.93,0,0,0-.65-.06,2.18,2.18,0,0,0-1.54.54,1.61,1.61,0,0,0-.59,1.23v3.36Z" transform="translate(-2.76 -5.43)"/><path class="cls-1" d="M38.31,19.91V19a3.54,3.54,0,0,1-1.2.81,4,4,0,0,1-1.53.26,3,3,0,0,1-1.87-.5,1.66,1.66,0,0,1-.66-1.41,1.63,1.63,0,0,1,.86-1.51,5.86,5.86,0,0,1,2.7-.56l1.66-.05v-.2c0-.85-.56-1.28-1.68-1.28a3.25,3.25,0,0,0-1.26.2,1,1,0,0,0-.58.61l-1.28-.15a1.94,1.94,0,0,1,1-1.32,4.52,4.52,0,0,1,2.19-.43,3.55,3.55,0,0,1,2.26.6,2.23,2.23,0,0,1,.74,1.84v4Zm0-2.91-1.63,0a4.47,4.47,0,0,0-1.63.28.78.78,0,0,0-.5.73.76.76,0,0,0,.39.69A1.9,1.9,0,0,0,36,19a3.3,3.3,0,0,0,1-.15,2.47,2.47,0,0,0,.82-.43,1.17,1.17,0,0,0,.49-1Z" transform="translate(-2.76 -5.43)"/><path class="cls-1" d="M43.77,19.91V13.22L41.65,14.5l-.65-1,3-1.84h1.3v8.29Z" transform="translate(-2.76 -5.43)"/><path class="cls-1" d="M50.76,19.91V13.22L48.64,14.5l-.65-1,2.95-1.84h1.3v8.29Z" transform="translate(-2.76 -5.43)"/><path class="cls-1" d="M60.46,15.61a2.45,2.45,0,0,1,1.28.78,1.87,1.87,0,0,1,.46,1.26,2.05,2.05,0,0,1-1,1.84,4.89,4.89,0,0,1-2.74.64,5.05,5.05,0,0,1-2.74-.62,2,2,0,0,1-1-1.8,2,2,0,0,1,.47-1.31,2.54,2.54,0,0,1,1.29-.79,2.24,2.24,0,0,1-1.07-.74,1.79,1.79,0,0,1-.37-1.14A1.94,1.94,0,0,1,56.05,12a4.29,4.29,0,0,1,2.48-.63A4.35,4.35,0,0,1,61,12a2,2,0,0,1,.88,1.72,1.85,1.85,0,0,1-.37,1.16A2.1,2.1,0,0,1,60.46,15.61Zm.32,2c0-.9-.76-1.35-2.26-1.35s-2.27.46-2.27,1.36a1.13,1.13,0,0,0,.58,1,3.36,3.36,0,0,0,1.69.34,3.19,3.19,0,0,0,1.68-.35A1.12,1.12,0,0,0,60.78,17.6Zm-.27-3.78a1.07,1.07,0,0,0-.53-.93,3.46,3.46,0,0,0-2.95,0,1.07,1.07,0,0,0-.53.94c0,.86.67,1.28,2,1.28a2.74,2.74,0,0,0,1.5-.32A1,1,0,0,0,60.51,13.82Z" transform="translate(-2.76 -5.43)"/><path class="cls-1" d="M63.4,14.23l.47-2.88h1.46l-.82,2.88Z" transform="translate(-2.76 -5.43)"/><path class="cls-1" d="M71.08,15.38a1.07,1.07,0,0,0-.59-.61,3,3,0,0,0-1.21-.2,3.18,3.18,0,0,0-1.21.19.58.58,0,0,0-.42.55.61.61,0,0,0,.13.41,1,1,0,0,0,.45.23,4.88,4.88,0,0,0,.89.18l.8.12a8,8,0,0,1,1.62.39,1.85,1.85,0,0,1,.82.59,1.53,1.53,0,0,1,.25.91,1.63,1.63,0,0,1-.8,1.47,5.76,5.76,0,0,1-4.74,0,2.18,2.18,0,0,1-1-1.59h1.4a1.17,1.17,0,0,0,.62.75,3,3,0,0,0,1.34.24c1.17,0,1.75-.26,1.75-.78a.56.56,0,0,0-.32-.52,4.59,4.59,0,0,0-1.2-.3l-.81-.12a6.31,6.31,0,0,1-1.57-.38,1.67,1.67,0,0,1-.8-.61,1.83,1.83,0,0,1-.23-1A1.52,1.52,0,0,1,67.06,14a4.35,4.35,0,0,1,2.22-.49,4.49,4.49,0,0,1,2.16.42,2.07,2.07,0,0,1,1,1.33Z" transform="translate(-2.76 -5.43)"/><path class="cls-1" d="M83.92,19.91,82,16.54h-2.9v3.36H77.62V11.35h4.09c2.3,0,3.45.86,3.45,2.6a2.23,2.23,0,0,1-1.68,2.3l2.16,3.66Zm-2.3-4.59A2.71,2.71,0,0,0,83.15,15a1.17,1.17,0,0,0,.5-1,1.15,1.15,0,0,0-.48-1,2.81,2.81,0,0,0-1.53-.32H79.09v2.74Z" transform="translate(-2.76 -5.43)"/><path class="cls-1" d="M87.81,17.15a1.81,1.81,0,0,0,.6,1.38,2.24,2.24,0,0,0,1.53.51,2.57,2.57,0,0,0,1.22-.25,1.32,1.32,0,0,0,.66-.72h1.42a2.4,2.4,0,0,1-1.08,1.53,4.21,4.21,0,0,1-2.23.51,3.63,3.63,0,0,1-2.58-.87,3.1,3.1,0,0,1-.95-2.39,3.45,3.45,0,0,1,.43-1.74,3,3,0,0,1,1.22-1.2,3.85,3.85,0,0,1,1.87-.43,3.55,3.55,0,0,1,2.51.83,3,3,0,0,1,.9,2.34v.5Zm4.14-1A1.59,1.59,0,0,0,91.39,15a2.29,2.29,0,0,0-1.48-.44A2.17,2.17,0,0,0,88.5,15a1.75,1.75,0,0,0-.66,1.21Z" transform="translate(-2.76 -5.43)"/><path class="cls-1" d="M99.2,19.79a5.35,5.35,0,0,1-1.64.25,2.22,2.22,0,0,1-1.62-.5,2.25,2.25,0,0,1-.51-1.64V14.77H94.22v-1.1h1.21V12h1.44v1.68H99v1.1H96.87V18a1,1,0,0,0,.25.73,1,1,0,0,0,.76.24A3.58,3.58,0,0,0,99,18.74Z" transform="translate(-2.76 -5.43)"/><path class="cls-1" d="M100.4,12.75v-1.4h1.49v1.4Zm0,7.16V13.67h1.44v6.24Z" transform="translate(-2.76 -5.43)"/><path class="cls-1" d="M103.76,19.91V13.67h1.42v1.07a3.06,3.06,0,0,1,1-.86,2.72,2.72,0,0,1,1.26-.3,4.36,4.36,0,0,1,.67.06l-.16,1.2a4,4,0,0,0-.66-.06,2.18,2.18,0,0,0-1.54.54,1.61,1.61,0,0,0-.59,1.23v3.36Z" transform="translate(-2.76 -5.43)"/><path class="cls-1" d="M110.31,17.15a1.81,1.81,0,0,0,.6,1.38,2.24,2.24,0,0,0,1.53.51,2.57,2.57,0,0,0,1.22-.25,1.32,1.32,0,0,0,.66-.72h1.42a2.4,2.4,0,0,1-1.08,1.53,4.21,4.21,0,0,1-2.23.51,3.63,3.63,0,0,1-2.58-.87,3.1,3.1,0,0,1-.95-2.39,3.45,3.45,0,0,1,.43-1.74,3,3,0,0,1,1.22-1.2,3.85,3.85,0,0,1,1.87-.43,3.55,3.55,0,0,1,2.51.83,3,3,0,0,1,.9,2.34v.5Zm4.14-1a1.59,1.59,0,0,0-.56-1.23,2.29,2.29,0,0,0-1.48-.44A2.17,2.17,0,0,0,111,15a1.75,1.75,0,0,0-.66,1.21Z" transform="translate(-2.76 -5.43)"/><path class="cls-1" d="M124.06,11.35h1.52v5a3.61,3.61,0,0,1-1,2.8,5.48,5.48,0,0,1-6.11,0,3.65,3.65,0,0,1-1-2.8v-5H119v5.12a2.39,2.39,0,0,0,.62,1.81,3.48,3.48,0,0,0,3.85,0,2.39,2.39,0,0,0,.62-1.81Z" transform="translate(-2.76 -5.43)"/><path class="cls-1" d="M127.56,22.24V13.67H129v1a2.77,2.77,0,0,1,1.12-.9,3.59,3.59,0,0,1,1.55-.33,3.19,3.19,0,0,1,1.62.4,2.81,2.81,0,0,1,1.1,1.14,3.54,3.54,0,0,1,.4,1.73,3.75,3.75,0,0,1-.39,1.72,3,3,0,0,1-1.14,1.2,3.4,3.4,0,0,1-1.73.44A3,3,0,0,1,129,19v3.24ZM129,17a2,2,0,0,0,2.11,2,2.17,2.17,0,0,0,1.63-.57,2.23,2.23,0,0,0,.55-1.64,2.18,2.18,0,0,0-.55-1.59,2.11,2.11,0,0,0-1.56-.57,2.51,2.51,0,0,0-.89.17,2.32,2.32,0,0,0-.73.48,2,2,0,0,0-.42.62,2,2,0,0,0-.14.72Z" transform="translate(-2.76 -5.43)"/><polygon class="cls-1" points="142.22 15.05 150.91 15.05 155.24 7.52 146.56 7.52 142.22 15.05"/><polygon class="cls-1" points="133.59 0 142.28 0 146.62 7.52 137.94 7.52 133.59 0"/><polygon class="cls-1" points="129.19 22.57 137.88 22.57 142.22 15.05 133.53 15.05 129.19 22.57"/></svg>